<?xml version="1.0" encoding="UTF-8" standalone="no"?>
<!DOCTYPE svg PUBLIC "-//W3C//DTD SVG 1.1//EN" "http://www.w3.org/Graphics/SVG/1.1/DTD/svg11.dtd">
<svg width="100%" height="100%" viewBox="0 0 88 48" version="1.1" xmlns="http://www.w3.org/2000/svg" xmlns:xlink="http://www.w3.org/1999/xlink" xml:space="preserve" xmlns:serif="http://www.serif.com/" style="fill-rule:evenodd;clip-rule:evenodd;stroke-linejoin:round;stroke-miterlimit:2;">
    <g transform="matrix(1,0,0,1,-6.013,-27.4822)">
        <path d="M88.894,56.423C88.894,57.648 90.034,58.639 91.441,58.639C92.848,58.639 93.988,57.648 93.988,56.423C93.988,55.199 92.848,54.208 91.441,54.208C90.034,54.208 88.894,55.199 88.894,56.423ZM90.142,57.237C91.798,57.9 93.285,56.524 93.285,56.524C91.917,58.639 90.142,57.237 90.142,57.237ZM18.123,73.375C18.123,74.336 19.224,75.113 20.581,75.113C21.939,75.113 23.039,74.336 23.039,73.375C23.039,72.416 21.939,71.639 20.581,71.639C19.224,71.639 18.123,72.416 18.123,73.375ZM19.459,73.763C20.998,73.946 22.373,73.375 22.373,73.375C20.855,75.031 19.459,73.763 19.459,73.763ZM26.188,59.199C26.188,60.326 27.544,61.235 29.218,61.235C30.892,61.235 32.249,60.326 32.249,59.199C32.249,58.072 30.893,57.162 29.218,57.162C27.544,57.162 26.188,58.072 26.188,59.199ZM27.781,59.505C29.374,59.811 31.397,59.199 31.397,59.199C29.564,60.726 27.781,59.505 27.781,59.505ZM21.365,56.696C21.365,57.452 22.113,58.063 23.039,58.063C23.965,58.063 24.713,57.452 24.713,56.696C24.713,55.941 23.965,55.33 23.039,55.33C22.113,55.33 21.365,55.941 21.365,56.696ZM22.333,56.805C23.252,57.23 23.835,56.805 23.835,56.805C23.122,57.849 22.333,56.805 22.333,56.805ZM6.013,42.168C6.013,43.022 7.057,43.714 8.349,43.714C9.641,43.714 10.685,43.023 10.685,42.168C10.685,41.313 9.641,40.623 8.349,40.623C7.057,40.623 6.013,41.313 6.013,42.168ZM7.182,42.596C7.767,42.8 9.88,42.393 9.88,42.393C8.582,43.488 7.182,42.596 7.182,42.596ZM57.937,72.289C57.937,72.891 58.572,73.376 59.357,73.376C60.141,73.376 60.777,72.891 60.777,72.289C60.777,71.686 60.141,71.201 59.357,71.201C58.571,71.201 57.937,71.687 57.937,72.289ZM58.491,72.644C59.611,73.052 60.273,72.299 60.273,72.299L60.273,72.532C59.51,73.745 58.491,72.644 58.491,72.644ZM8.633,38.627C13.25,39.646 12.096,41.817 12.096,41.817C10.736,43.582 11.214,46.164 11.214,46.164C12.232,50.577 20.107,48.812 20.107,48.812C25.811,48.336 27.916,51.257 27.916,51.257C29.411,53.972 32.126,55.807 32.126,55.807C35.316,58.386 34.895,60.899 34.895,60.899C35.016,62.529 31.04,62.325 31.04,62.325C23.571,61.511 22.484,61.918 22.484,61.918C20.991,62.122 19.021,61.852 19.021,61.852C9.447,59.884 12.604,64.496 12.604,64.496C12.875,67.214 16.405,67.552 16.405,67.552C22.041,67.688 26.42,70.271 26.42,70.271C39.05,73.869 46.86,71.56 46.86,71.56C51.885,69.658 59.355,68.98 59.355,68.98C60.893,68.808 63.174,68.928 63.174,68.928C71.628,69.691 76.059,66.891 76.059,66.891C81.356,63.987 87.518,65.108 87.518,65.108C94.545,65.974 93.174,61.577 93.174,61.577C90.253,56.89 84.073,59.608 84.073,59.608C79.388,60.899 79.592,56.553 79.592,56.553C79.524,52.752 83.192,53.768 83.192,53.768C85.161,54.787 86.925,54.582 86.925,54.582C94.056,53.428 91.611,49.22 91.611,49.22C88.963,44.806 82.377,47.59 82.377,47.59C76.197,50.035 72.056,47.929 72.056,47.929C68.659,45.213 66.42,45.484 66.42,45.484C60.24,45.009 60.037,43.652 60.037,43.652C58.314,41.929 60.625,40.323 62.454,39.408C64.838,38.77 65.605,37.821 65.808,37.078C65.808,37.078 65.81,37.072 65.81,37.07C65.832,36.986 65.85,36.904 65.859,36.827C65.864,36.801 65.868,36.776 65.871,36.748C65.871,36.74 65.872,36.731 65.874,36.723C65.947,36.172 65.96,35.109 65.115,34.474L65.115,34.478C64.594,33.835 63.941,33.594 63.941,33.594C60.138,31.42 50.392,32.515 50.392,32.515C45.433,34.484 30.703,28.983 30.703,28.983C25.473,27.285 20.858,27.49 20.858,27.49C12.506,27.897 7.89,32.107 7.89,32.107C3.952,37.676 8.633,38.627 8.633,38.627ZM62.037,39.167C62.037,39.167 64.891,38.015 65.06,35.841C65.061,35.841 65.501,38.419 62.037,39.167ZM78.326,54.36C79.345,51.05 82.553,51.992 82.553,51.992C84.642,53.036 86.272,52.961 86.272,52.961C88.971,52.909 90.397,51.407 90.397,51.407C87.774,55.226 82.503,52.578 82.503,52.578C79.295,52.019 78.326,54.36 78.326,54.36ZM61.775,67.525C72.189,67.983 76.85,64.495 76.85,64.495C80.058,62.586 84.182,63.044 84.182,63.044C89.647,63.377 91.23,62.137 91.417,61.969C89.712,64.015 81.017,63.715 81.017,63.715C79.116,63.715 75.55,65.719 75.55,65.719C67.811,68.441 61.775,67.525 61.775,67.525ZM20.906,67.041C14.336,66.584 14.743,64.134 14.743,64.134C17.138,65.662 20.906,67.041 20.906,67.041ZM45.641,69.758C51.991,67.551 56.708,67.79 56.708,67.79C52.99,67.773 45.861,70.606 45.861,70.606C36.338,72.542 28.393,69.638 28.393,69.638C26.457,68.365 23.402,67.673 23.402,67.673C25.338,67.541 28.393,68.519 28.393,68.519C29.361,69.18 30.379,69.383 30.379,69.383C40.309,71.218 45.641,69.758 45.641,69.758ZM33.484,55.083C34.093,55.625 34.574,56.187 35.032,56.865C35.215,57.139 35.422,57.415 35.578,57.696C35.723,57.955 35.826,58.223 35.974,58.469C36.171,58.792 36.427,59.062 36.534,59.435C36.625,59.752 36.505,60.135 36.565,60.447L36.489,60.422C36.417,60.449 36.309,60.449 36.214,60.442C35.913,59.763 35.806,59.021 35.472,58.329C35.33,58.038 35.237,57.687 35.057,57.416C34.902,57.178 34.727,56.964 34.583,56.714C34.395,56.393 34.213,56.037 33.999,55.738C33.84,55.515 33.616,55.319 33.484,55.083ZM29.516,51.174C29.57,51.105 29.612,51.015 29.618,50.926C30.172,51.127 30.654,51.752 31.015,52.215C31.19,52.439 31.4,52.61 31.593,52.813C31.74,52.967 31.893,53.234 32.085,53.317L32.059,53.317C32.018,53.37 31.98,53.44 31.953,53.518C31.808,53.353 31.66,53.171 31.48,53.044C31.198,52.84 31.087,52.673 30.856,52.399C30.655,52.163 30.446,51.986 30.257,51.739C30.044,51.462 29.849,51.283 29.516,51.174ZM13.013,46.06C14.006,46.977 15.534,46.9 21.161,47.079C26.788,47.257 28.978,50.415 28.978,50.415C25.057,47.283 18.869,47.461 18.869,47.461C13.828,47.613 13.013,46.06 13.013,46.06ZM11.536,38.802C14.311,40.177 13.828,41.679 13.828,41.679C13.013,39.872 11.536,38.802 11.536,38.802ZM7.64,34.244C7.152,36.582 11.078,38.496 11.078,38.496C5.653,36.816 7.64,34.244 7.64,34.244Z" style="fill-rule:nonzero;"/>
    </g>
</svg>
